<svg xmlns="http://www.w3.org/2000/svg" viewBox="0 0 1100 650" role="img" aria-labelledby="title desc">
<title id="title">정돈된 멀티 모니터 작업 공간</title>
<desc id="desc">여러 창이 절반과 사분면으로 정렬된 세 대의 모니터와 단축키를 표현한 그래픽</desc>
<defs>
  <linearGradient id="screenLight" x1="0" y1="0" x2="0" y2="1"><stop stop-color="#fafdff"/><stop offset="1" stop-color="#eaf4ff"/></linearGradient>
  <linearGradient id="screenBlue" x1="0" y1="0" x2="1" y2="1"><stop stop-color="#59b0ff"/><stop offset="1" stop-color="#d9efff"/></linearGradient>
  <linearGradient id="dark" x1="0" y1="0" x2="1" y2="1"><stop stop-color="#0e1a2d"/><stop offset="1" stop-color="#1d3554"/></linearGradient>
  <linearGradient id="tile" x1="0" y1="0" x2="1" y2="1"><stop stop-color="#cae6ff" stop-opacity=".82"/><stop offset="1" stop-color="#eef8ff" stop-opacity=".48"/></linearGradient>
  <filter id="shadow" x="-30%" y="-30%" width="160%" height="180%"><feDropShadow dx="0" dy="22" stdDeviation="20" flood-color="#2c6da8" flood-opacity=".16"/></filter>
  <filter id="soft" x="-30%" y="-30%" width="160%" height="160%"><feDropShadow dx="0" dy="8" stdDeviation="9" flood-color="#4c8bc7" flood-opacity=".16"/></filter>
  <clipPath id="mainScreen"><rect x="313" y="150" width="448" height="282" rx="8"/></clipPath>
  <clipPath id="leftScreen"><rect x="66" y="238" width="270" height="182" rx="7"/></clipPath>
  <clipPath id="rightScreen"><rect x="790" y="237" width="261" height="185" rx="7"/></clipPath>
</defs>
<g fill="url(#tile)" stroke="#5ca9fa" stroke-width="3" filter="url(#soft)"><rect x="350" y="35" width="142" height="83" rx="13"/><rect x="495" y="35" width="142" height="83" rx="13"/><rect x="735" y="93" width="126" height="77" rx="13"/><rect x="745" y="174" width="126" height="77" rx="13"/><rect x="755" y="255" width="126" height="77" rx="13"/></g>
<g fill="#1584f6" font-family="Segoe UI Symbol, sans-serif" font-size="32" font-weight="700"><text x="322" y="89">‹</text><text x="646" y="89">›</text></g>
<g filter="url(#soft)"><g transform="translate(870 34) rotate(4)"><rect width="70" height="62" rx="13" fill="#fff" stroke="#d6e6f7"/><text x="35" y="41" text-anchor="middle" font-size="30" fill="#1681ed">←</text></g><g transform="translate(947 11) rotate(4)"><rect width="70" height="62" rx="13" fill="#fff" stroke="#d6e6f7"/><text x="35" y="41" text-anchor="middle" font-size="30" fill="#1681ed">↑</text></g><g transform="translate(946 79) rotate(4)"><rect width="70" height="62" rx="13" fill="#fff" stroke="#d6e6f7"/><text x="35" y="41" text-anchor="middle" font-size="30" fill="#1681ed">↓</text></g><g transform="translate(1023 52) rotate(4)"><rect width="70" height="62" rx="13" fill="#fff" stroke="#d6e6f7"/><text x="35" y="41" text-anchor="middle" font-size="30" fill="#1681ed">→</text></g></g>
<g filter="url(#shadow)"><rect x="53" y="222" width="296" height="214" rx="15" fill="#0c1b2e"/><rect x="66" y="238" width="270" height="182" rx="7" fill="url(#screenLight)"/><g clip-path="url(#leftScreen)"><rect x="66" y="238" width="270" height="26" fill="#f8fbff"/><circle cx="82" cy="251" r="4" fill="#ff7869"/><circle cx="96" cy="251" r="4" fill="#f4c44d"/><circle cx="110" cy="251" r="4" fill="#56c47a"/><rect x="76" y="277" width="70" height="124" rx="5" fill="#edf5fc"/><rect x="158" y="278" width="162" height="82" rx="7" fill="url(#screenBlue)"/><path d="M158 345l36-35 30 25 34-49 62 74H158Z" fill="#277bd1" opacity=".8"/><path d="M158 352l48-33 24 14 27-30 63 57H158Z" fill="#174e8b" opacity=".85"/><rect x="158" y="370" width="48" height="25" rx="5" fill="#d4e8f9"/><rect x="213" y="370" width="48" height="25" rx="5" fill="#9dcdf7"/><rect x="268" y="370" width="48" height="25" rx="5" fill="#d4e8f9"/></g><path d="M188 436h28l-5 45h-64l-5-45h28" fill="#9eacba"/><rect x="128" y="478" width="104" height="13" rx="7" fill="#aab7c4"/></g>
<g filter="url(#shadow)"><rect x="296" y="132" width="482" height="318" rx="17" fill="#0b192b"/><rect x="313" y="150" width="448" height="282" rx="8" fill="#eef6ff"/><g clip-path="url(#mainScreen)"><rect x="313" y="150" width="220" height="139" fill="#fafdff"/><rect x="539" y="150" width="222" height="139" fill="url(#dark)"/><rect x="313" y="295" width="220" height="137" fill="#fff"/><rect x="539" y="295" width="222" height="137" fill="#fbfdff"/><rect x="326" y="164" width="48" height="111" rx="5" fill="#edf4fb"/><g fill="#9fc8ee"><rect x="389" y="176" width="29" height="24" rx="4"/><rect x="430" y="176" width="29" height="24" rx="4"/><rect x="471" y="176" width="29" height="24" rx="4"/><rect x="389" y="213" width="29" height="24" rx="4"/><rect x="430" y="213" width="29" height="24" rx="4"/><rect x="471" y="213" width="29" height="24" rx="4"/></g><g stroke-linecap="round" stroke-width="5"><path d="M560 178h67" stroke="#2994ee"/><path d="M575 197h101" stroke="#55c4cb"/><path d="M560 216h128" stroke="#2c79c9"/><path d="M582 235h93" stroke="#e7a146"/><path d="M560 254h120" stroke="#5ab0e7"/></g><g fill="#dce8f3"><rect x="330" y="314" width="170" height="8" rx="4"/><rect x="330" y="334" width="155" height="8" rx="4"/><rect x="330" y="354" width="178" height="8" rx="4"/><rect x="330" y="374" width="136" height="8" rx="4"/><rect x="330" y="394" width="164" height="8" rx="4"/></g><path d="M558 382c32-37 55-9 75-38 19-27 42 18 67-13 14-17 26-4 45-31" fill="none" stroke="#287ee3" stroke-width="5"/><path d="M558 382h188" stroke="#dbe6f2" stroke-width="2"/><g fill="#3d91ee"><rect x="569" y="397" width="11" height="24" rx="2"/><rect x="589" y="388" width="11" height="33" rx="2"/><rect x="609" y="403" width="11" height="18" rx="2"/><rect x="629" y="393" width="11" height="28" rx="2"/></g><circle cx="707" cy="394" r="26" fill="none" stroke="#cfe1f4" stroke-width="10"/><path d="M707 368a26 26 0 0 1 21 41" fill="none" stroke="#2687ea" stroke-width="10"/></g><path d="M500 450h74l-8 61h-58Z" fill="#a5b2bf"/><rect x="458" y="506" width="157" height="16" rx="8" fill="#b3bfca"/></g>
<g filter="url(#shadow)"><rect x="775" y="221" width="292" height="217" rx="15" fill="#0c1b2e"/><rect x="790" y="237" width="261" height="185" rx="7" fill="#f9fcff"/><g clip-path="url(#rightScreen)"><rect x="790" y="237" width="126" height="84" fill="#f7fbff"/><rect x="922" y="237" width="129" height="84" fill="url(#screenBlue)"/><path d="M922 309l35-35 23 18 27-31 44 60H922Z" fill="#236fbd" opacity=".8"/><rect x="790" y="327" width="261" height="95" fill="#fff"/><g stroke="#dfe9f2" stroke-width="2"><path d="M803 345h234M803 365h234M803 385h234M803 405h234"/><path d="M845 336v77M888 336v77M931 336v77M974 336v77"/></g><g fill="#8ed2ad"><rect x="873" y="343" width="52" height="8" rx="4"/><rect x="873" y="363" width="78" height="8" rx="4"/><rect x="873" y="383" width="64" height="8" rx="4"/><rect x="873" y="403" width="37" height="8" rx="4"/></g></g><path d="M900 438h36l-4 45h-61l-4-45h33" fill="#a4b1bd"/><rect x="850" y="480" width="104" height="13" rx="7" fill="#b0bcc7"/></g>
<g filter="url(#soft)"><path d="M398 535h310l65 39H335Z" fill="#c9d5e0"/><g stroke="#9cabb9" stroke-width="2"><path d="M381 548h336M402 560h336"/><path d="M412 537l17 33M446 537l17 33M480 537l17 33M514 537l17 33M548 537l17 33M582 537l17 33M616 537l17 33M650 537l17 33M684 537l17 33"/></g><ellipse cx="813" cy="553" rx="46" ry="23" fill="#d8e2eb" stroke="#adb9c4"/></g><g><rect x="167" y="512" width="170" height="13" rx="7" fill="#23374c" transform="rotate(-4 167 512)"/><rect x="178" y="525" width="162" height="10" rx="5" fill="#8799aa" transform="rotate(-4 178 525)"/></g>
</svg>
